<svg width="80" height="80" viewBox="0 0 80 80" fill="none" xmlns="http://www.w3.org/2000/svg">
<path d="M40 20C43.6666 20 46.6666 23 46.6666 26.6667C46.6666 30.3334 43.6666 33.3334 40 33.3334C36.3333 33.3334 33.3333 30.3334 33.3333 26.6667C33.3333 23 36.3333 20 40 20ZM40 53.3334C49 53.3334 59.3333 57.6334 60 60H20C20.7666 57.6 31.0333 53.3334 40 53.3334ZM40 13.3334C32.6333 13.3334 26.6666 19.3 26.6666 26.6667C26.6666 34.0334 32.6333 40 40 40C47.3666 40 53.3333 34.0334 53.3333 26.6667C53.3333 19.3 47.3666 13.3334 40 13.3334ZM40 46.6667C31.1 46.6667 13.3333 51.1334 13.3333 60V66.6667H66.6666V60C66.6666 51.1334 48.9 46.6667 40 46.6667Z" fill="#F5F5F4"/>
</svg>
