<svg width="80" height="80" viewBox="0 0 80 80" fill="none" xmlns="http://www.w3.org/2000/svg">
<path d="M36.896 41.1667C39.4626 36.5334 44.396 33.8 47.2626 29.7C50.296 25.4 48.596 17.3667 39.996 17.3667C34.3626 17.3667 31.596 21.6334 30.4293 25.1667L21.796 21.5334C24.1626 14.4334 30.596 8.33337 39.9626 8.33337C47.796 8.33337 53.1626 11.9 55.896 16.3667C58.2293 20.2 59.596 27.3667 55.996 32.7C51.996 38.6 48.1626 40.4 46.096 44.2C45.2626 45.7334 44.9293 46.7334 44.9293 51.6667H35.296C35.2626 49.0667 34.8626 44.8334 36.896 41.1667ZM46.6626 65C46.6626 68.6667 43.6626 71.6667 39.996 71.6667C36.3293 71.6667 33.3293 68.6667 33.3293 65C33.3293 61.3334 36.3293 58.3334 39.996 58.3334C43.6626 58.3334 46.6626 61.3334 46.6626 65Z" fill="#F5F5F4"/>
</svg>
